<svg width="45" height="45" viewBox="0 0 220 173" fill="none" xmlns="http://www.w3.org/2000/svg">
<g filter="url(#filter0_d_1_528)">
<path d="M84.657 117.179V116.733C84.657 116.328 84.9842 116 85.3878 116C85.7914 116 86.1185 116.328 86.1185 116.733V117.179C86.1185 117.584 85.7914 117.912 85.3878 117.912C84.9842 117.912 84.657 117.584 84.657 117.179ZM77.5902 119.47C77.7256 119.706 77.9712 119.837 78.2239 119.837C78.3478 119.837 78.4734 119.806 78.5884 119.739C78.938 119.537 79.0579 119.089 78.8562 118.738L78.634 118.352C78.4322 118.001 77.9853 117.881 77.6359 118.083C77.2863 118.285 77.1664 118.733 77.368 119.084L77.5902 119.47ZM92.1869 119.739C92.3019 119.806 92.4275 119.837 92.5515 119.837C92.804 119.837 93.0497 119.706 93.1851 119.471L93.4074 119.084C93.6092 118.734 93.4894 118.286 93.1399 118.083C92.7905 117.881 92.3436 118.001 92.1417 118.352L91.9193 118.738C91.7176 119.088 91.8373 119.537 92.1869 119.739ZM97.7977 125.097C97.9217 125.097 98.0473 125.066 98.1625 124.999L98.5477 124.776C98.8971 124.574 99.0168 124.125 98.8149 123.775C98.6132 123.424 98.1663 123.304 97.8168 123.507L97.4316 123.73C97.0821 123.932 96.9624 124.38 97.1642 124.731C97.2995 124.966 97.5451 125.097 97.7977 125.097ZM99.6972 138.095C98.7483 139.981 96.0967 141.248 93.0989 141.248C91.0439 141.248 89.1189 140.654 87.8102 139.636C87.0605 140.151 86.269 140.483 85.4849 140.584C85.4492 140.589 85.4133 140.591 85.3788 140.59C85.3495 140.59 85.3201 140.588 85.2907 140.584C84.5065 140.483 83.715 140.151 82.9654 139.636C81.6567 140.654 79.7318 141.248 77.6766 141.248C74.6789 141.248 72.0273 139.981 71.0783 138.095C70.9739 137.887 70.9738 137.642 71.0783 137.435C71.7785 136.043 73.3795 134.987 75.4056 134.53C74.3543 133.032 73.9704 131.263 74.4465 129.749C74.5048 129.564 74.6341 129.409 74.8058 129.32C76.0065 128.692 77.5293 128.647 79.0116 129.168C79.2317 128.437 79.5779 127.8 80.0472 127.305C80.2077 127.135 80.4395 127.052 80.6707 127.082C81.054 127.132 81.4389 127.236 81.82 127.391C82.5932 125.752 83.7328 124.53 85.0828 123.908C85.2762 123.819 85.4988 123.819 85.6923 123.908C87.0419 124.529 88.1811 125.751 88.9545 127.388C89.3356 127.236 89.7209 127.132 90.1049 127.082C90.3363 127.052 90.5679 127.135 90.7284 127.305C91.1977 127.8 91.5438 128.437 91.7639 129.168C93.2464 128.647 94.769 128.692 95.9696 129.319C96.1413 129.409 96.2706 129.564 96.3289 129.749C96.8052 131.263 96.4213 133.032 95.3699 134.53C97.396 134.987 98.9971 136.043 99.6972 137.435C99.8016 137.642 99.8016 137.887 99.6972 138.095ZM90.8493 136.016C91.6428 135.818 92.4311 135.411 93.1255 134.827C94.5438 133.633 95.2866 131.896 95.0115 130.491C94.1531 130.157 93.0825 130.209 92.0275 130.633C92.1288 132.002 91.8828 133.55 91.275 135.073C91.1458 135.397 91.0033 135.712 90.8493 136.016ZM83.1014 128.105C83.9433 128.706 84.7285 129.538 85.3862 130.533C86.0473 129.527 86.8317 128.696 87.6715 128.099C87.1087 126.879 86.3031 125.925 85.3877 125.398C84.4708 125.926 83.6642 126.882 83.1014 128.105ZM77.6498 134.827C78.3441 135.411 79.1327 135.818 79.9264 136.016C79.7722 135.712 79.6299 135.397 79.5006 135.073C78.8928 133.55 78.6468 132.002 78.7481 130.633C77.693 130.209 76.6224 130.157 75.7639 130.491C75.4888 131.896 76.2316 133.633 77.6498 134.827ZM81.8109 138.664C81.4962 138.347 81.1957 137.996 80.9139 137.617C79.4658 137.593 77.9551 136.997 76.7103 135.95C76.658 135.906 76.6065 135.861 76.5557 135.816C74.7758 136.037 73.2841 136.773 72.5823 137.765C73.4356 138.968 75.4529 139.783 77.6765 139.783C79.2551 139.783 80.765 139.365 81.8109 138.664ZM85.1038 133.138C84.3755 131.313 83.1579 129.808 81.8781 129.048C81.8424 129.031 81.8086 129.011 81.7768 128.99C81.474 128.819 81.1685 128.692 80.8654 128.612C80.5625 129.046 80.3597 129.602 80.2588 130.235C80.2562 130.274 80.2505 130.312 80.2416 130.35C80.073 131.573 80.2742 133.067 80.8573 134.529C81.4459 136.004 82.3539 137.27 83.3562 138.102C83.3796 138.119 83.4022 138.138 83.4239 138.158C83.967 138.596 84.536 138.907 85.0956 139.055C85.9938 137.768 86.0117 135.414 85.1038 133.138ZM89.9181 134.528C90.501 133.067 90.7022 131.574 90.534 130.352C90.5248 130.312 90.519 130.273 90.5164 130.233C90.4155 129.601 90.2126 129.045 89.9099 128.611C89.6114 128.69 89.31 128.815 89.0107 128.981C88.9712 129.01 88.9281 129.034 88.8821 129.055C87.8881 129.648 86.9287 130.691 86.2065 132.005C86.296 132.197 86.3808 132.394 86.4606 132.594C87.2892 134.671 87.4455 136.794 86.9657 138.445C87.0961 138.356 87.2256 138.259 87.3536 138.156C87.3739 138.137 87.395 138.12 87.4168 138.104C88.42 137.272 89.3291 136.005 89.9181 134.528ZM98.1931 137.765C97.4912 136.773 95.9995 136.037 94.2195 135.816C94.1688 135.861 94.1172 135.906 94.0649 135.95C92.8201 136.997 91.3095 137.592 89.8615 137.617C89.5798 137.996 89.2792 138.347 88.9645 138.664C90.0105 139.365 91.5205 139.783 93.0989 139.783C95.3224 139.783 97.3398 138.968 98.1931 137.765ZM92.4717 143.185C92.1674 142.919 91.7058 142.951 91.4407 143.256C90.9799 143.787 88.7973 144.534 85.3878 144.534C81.9782 144.534 79.7955 143.787 79.3348 143.256C79.0697 142.951 78.6081 142.919 78.3038 143.185C77.9995 143.451 77.9676 143.914 78.2327 144.219C79.3744 145.534 82.8006 146 85.3879 146C87.975 146 91.4012 145.534 92.5429 144.219C92.8078 143.914 92.776 143.451 92.4717 143.185ZM75.7815 127.678C76.1697 127.788 76.5735 127.561 76.683 127.172C77.7754 123.283 81.3549 120.567 85.3878 120.567C89.4207 120.567 93.0002 123.283 94.0926 127.172C94.1833 127.495 94.4765 127.706 94.7955 127.706C94.8611 127.706 94.9279 127.697 94.9941 127.678C95.3826 127.568 95.6087 127.164 95.4992 126.774C94.2302 122.257 90.0722 119.102 85.3878 119.102C80.7033 119.102 76.5453 122.257 75.2763 126.774C75.1669 127.164 75.393 127.568 75.7815 127.678ZM85.3878 143.537C86.0156 143.537 88.1222 143.47 88.872 142.606C89.137 142.301 89.1051 141.838 88.8007 141.572C88.4979 141.307 88.0394 141.338 87.7739 141.639C87.6072 141.791 86.7422 142.071 85.3878 142.071C84.033 142.071 83.1679 141.791 83.0014 141.639C82.7357 141.338 82.2774 141.307 81.9746 141.572C81.6702 141.838 81.6384 142.301 81.9035 142.606C82.6535 143.47 84.7601 143.537 85.3878 143.537ZM72.2278 124.776L72.6127 124.999C72.7279 125.066 72.8536 125.097 72.9777 125.097C73.2301 125.097 73.4757 124.966 73.6111 124.731C73.813 124.381 73.6934 123.932 73.344 123.73L72.959 123.507C72.6098 123.304 72.1626 123.424 71.9608 123.775C71.7588 124.125 71.8784 124.573 72.2278 124.776Z" fill="white"/>
</g>
<defs>
<filter id="filter0_d_1_528" x="-49" y="0" width="268.776" height="270" filterUnits="userSpaceOnUse" color-interpolation-filters="sRGB">
<feFlood flood-opacity="0" result="BackgroundImageFix"/>
<feColorMatrix in="SourceAlpha" type="matrix" values="0 0 0 0 0 0 0 0 0 0 0 0 0 0 0 0 0 0 127 0" result="hardAlpha"/>
<feOffset dy="4"/>
<feGaussianBlur stdDeviation="60"/>
<feColorMatrix type="matrix" values="0 0 0 0 1 0 0 0 0 1 0 0 0 0 1 0 0 0 1 0"/>
<feBlend mode="normal" in2="BackgroundImageFix" result="effect1_dropShadow_1_528"/>
<feBlend mode="normal" in="SourceGraphic" in2="effect1_dropShadow_1_528" result="shape"/>
</filter>
</defs>
</svg>
