<svg width="22" height="20" viewBox="0 0 22 20" fill="none" xmlns="http://www.w3.org/2000/svg">
<g opacity="0.5">
<path d="M20.9968 6.52769C20.3645 5.23077 19.2784 4.50462 18.2276 3.80154C17.4445 3.27692 16.706 2.78154 16.183 2.07231L16.086 1.94154C15.7784 1.52769 15.4276 1.05846 15.3737 0.664615C15.3691 0.632308 15.3507 0.606154 15.3414 0.573846C15.3276 0.52 15.3122 0.469231 15.2876 0.42C15.2691 0.38 15.243 0.344615 15.2153 0.307692C15.183 0.266154 15.1522 0.226154 15.1122 0.192308C15.0737 0.158462 15.0322 0.135385 14.9891 0.109231C14.9491 0.0861539 14.9122 0.0646154 14.8676 0.0492308C14.8137 0.0292308 14.7584 0.0215384 14.6999 0.0153846C14.6707 0.0138461 14.646 0 14.6153 0C14.5968 0 14.5814 0.00923081 14.5645 0.0107693C14.546 0.0123077 14.5291 0.00461538 14.5107 0.0076923C14.4768 0.0123077 14.4507 0.0307693 14.4184 0.04C14.366 0.0538462 14.3168 0.0676923 14.2707 0.0923077C14.2276 0.113846 14.1907 0.141538 14.1537 0.172308C14.1137 0.203077 14.0753 0.233846 14.043 0.272308C14.0107 0.309231 13.9876 0.349231 13.963 0.390769C13.9384 0.433846 13.9153 0.475385 13.8984 0.523077C13.8814 0.570769 13.8753 0.62 13.8691 0.672308C13.8614 0.703077 13.846 0.733846 13.846 0.769231V14.4769C13.2014 14.0862 12.4076 13.8462 11.5384 13.8462C9.41682 13.8462 7.6922 15.2262 7.6922 16.9231C7.6922 18.62 9.41682 20 11.5384 20C13.6599 20 15.3845 18.62 15.3845 16.9231V7.95692C16.5399 8.39846 18.4307 9.52308 18.9507 12.1492C18.8537 12.2923 18.7614 12.4477 18.6537 12.5692C18.3722 12.8877 18.4045 13.3738 18.723 13.6538C18.8691 13.7831 19.0507 13.8462 19.2307 13.8462C19.4445 13.8462 19.6553 13.7569 19.8076 13.5846C20.0122 13.3523 20.1953 13.0769 20.3707 12.7938C20.3907 12.7692 20.406 12.7462 20.423 12.72C21.0445 11.68 21.4568 10.3646 21.5353 9.06462C21.586 8.22923 21.3999 7.35231 20.9968 6.52769ZM11.5384 18.4615C10.2876 18.4615 9.23066 17.7569 9.23066 16.9231C9.23066 16.0892 10.2876 15.3846 11.5384 15.3846C12.7891 15.3846 13.846 16.0892 13.846 16.9231C13.846 17.7569 12.7891 18.4615 11.5384 18.4615ZM20.0014 8.96769C19.9799 9.32769 19.9245 9.68769 19.846 10.04C18.7645 7.86923 16.803 6.73846 15.3845 6.32V3.49385C15.9876 4.13692 16.6876 4.61846 17.3737 5.07692C18.2953 5.69385 19.166 6.27692 19.6168 7.20154C19.8999 7.77846 20.0353 8.40769 20.0014 8.96769Z" fill="white"/>
<path d="M10 0H0.769231C0.344615 0 0 0.344615 0 0.769231C0 1.19385 0.344615 1.53846 0.769231 1.53846H10C10.4246 1.53846 10.7692 1.19385 10.7692 0.769231C10.7692 0.344615 10.4246 0 10 0Z" fill="white"/>
<path d="M10 4.61542H0.769231C0.344615 4.61542 0 4.96003 0 5.38465C0 5.80926 0.344615 6.15388 0.769231 6.15388H10C10.4246 6.15388 10.7692 5.80926 10.7692 5.38465C10.7692 4.96003 10.4246 4.61542 10 4.61542Z" fill="white"/>
<path d="M5.38461 9.23083H0.769231C0.344615 9.23083 0 9.57545 0 10.0001C0 10.4247 0.344615 10.7693 0.769231 10.7693H5.38461C5.80923 10.7693 6.15385 10.4247 6.15385 10.0001C6.15385 9.57545 5.80923 9.23083 5.38461 9.23083Z" fill="white"/>
<path d="M5.38461 13.8461H0.769231C0.344615 13.8461 0 14.1907 0 14.6153C0 15.0399 0.344615 15.3845 0.769231 15.3845H5.38461C5.80923 15.3845 6.15385 15.0399 6.15385 14.6153C6.15385 14.1907 5.80923 13.8461 5.38461 13.8461Z" fill="white"/>
</g>
</svg>
